<svg width="99" height="37" viewBox="0 0 99 37" fill="none" xmlns="http://www.w3.org/2000/svg">
<path d="M9.57027 36.7924V0.793025H13.4V36.7924H9.57027ZM10.949 32.6563C8.80432 32.6563 6.74903 32.3755 4.78311 31.8138C2.81718 31.2266 1.23423 30.4734 0.0342487 29.5543L2.1406 24.882C3.28952 25.699 4.64269 26.3756 6.20011 26.9118C7.78306 27.4224 9.37878 27.6777 10.9873 27.6777C12.2128 27.6777 13.1957 27.5628 13.9362 27.333C14.7021 27.0777 15.2638 26.733 15.6212 26.299C15.9787 25.865 16.1574 25.3671 16.1574 24.8054C16.1574 24.0905 15.8765 23.5288 15.3149 23.1203C14.7532 22.6863 14.0127 22.3416 13.0936 22.0863C12.1745 21.8055 11.1532 21.5501 10.0298 21.3204C8.93198 21.065 7.82136 20.7587 6.69797 20.4012C5.60012 20.0438 4.59162 19.5842 3.67249 19.0225C2.75335 18.4608 2.00017 17.7204 1.41295 16.8013C0.851257 15.8821 0.57041 14.7077 0.57041 13.2779C0.57041 11.746 0.978914 10.3546 1.79592 9.10353C2.63846 7.82695 3.88951 6.81846 5.54905 6.07805C7.23413 5.3121 9.34048 4.92913 11.8681 4.92913C13.5532 4.92913 15.2127 5.13338 16.8467 5.54189C18.4808 5.92486 19.9233 6.51208 21.1743 7.30356L19.2595 12.0141C18.0084 11.2992 16.7574 10.7758 15.5063 10.4439C14.2553 10.0865 13.0298 9.90777 11.8298 9.90777C10.6298 9.90777 9.64686 10.0482 8.88092 10.329C8.11497 10.6099 7.56604 10.9801 7.23413 11.4397C6.90222 11.8737 6.73627 12.3843 6.73627 12.9716C6.73627 13.6609 7.01712 14.2226 7.57881 14.6566C8.1405 15.0651 8.88092 15.397 9.80005 15.6524C10.7192 15.9077 11.7277 16.163 12.8255 16.4183C13.9489 16.6736 15.0595 16.9672 16.1574 17.2991C17.2808 17.6311 18.302 18.0779 19.2212 18.6395C20.1403 19.2012 20.8807 19.9417 21.4424 20.8608C22.0296 21.7799 22.3233 22.9416 22.3233 24.3458C22.3233 25.8522 21.902 27.2309 21.0594 28.4819C20.2169 29.733 18.9531 30.7415 17.268 31.5074C15.6085 32.2734 13.5021 32.6563 10.949 32.6563ZM39.3922 32.6563C37.3241 32.6563 35.3965 32.3244 33.6093 31.6606C31.8476 30.9713 30.3157 30.0011 29.0136 28.75C27.7115 27.499 26.6902 26.0309 25.9498 24.3458C25.2349 22.6608 24.8775 20.8097 24.8775 18.7927C24.8775 16.7757 25.2349 14.9247 25.9498 13.2396C26.6902 11.5546 27.7115 10.0865 29.0136 8.83545C30.3412 7.58441 31.8859 6.62697 33.6476 5.96315C35.4092 5.2738 37.3369 4.92913 39.4305 4.92913C41.7538 4.92913 43.8474 5.33763 45.7112 6.15464C47.6005 6.94612 49.1835 8.12057 50.4601 9.67799L46.4772 13.3545C45.558 12.3077 44.5368 11.529 43.4134 11.0184C42.29 10.4822 41.0645 10.2142 39.7368 10.2142C38.4858 10.2142 37.3369 10.4184 36.2901 10.8269C35.2433 11.2354 34.3369 11.8226 33.571 12.5886C32.805 13.3545 32.205 14.2609 31.771 15.3077C31.3625 16.3545 31.1583 17.5162 31.1583 18.7927C31.1583 20.0693 31.3625 21.231 31.771 22.2778C32.205 23.3246 32.805 24.2309 33.571 24.9969C34.3369 25.7628 35.2433 26.3501 36.2901 26.7586C37.3369 27.1671 38.4858 27.3713 39.7368 27.3713C41.0645 27.3713 42.29 27.116 43.4134 26.6054C44.5368 26.0692 45.558 25.265 46.4772 24.1927L50.4601 27.8692C49.1835 29.4266 47.6005 30.6138 45.7112 31.4308C43.8474 32.2478 41.7411 32.6563 39.3922 32.6563ZM63.3085 32.6563C61.1639 32.6563 59.1086 32.3755 57.1426 31.8138C55.1767 31.2266 53.5938 30.4734 52.3938 29.5543L54.5001 24.882C55.649 25.699 57.0022 26.3756 58.5596 26.9118C60.1426 27.4224 61.7383 27.6777 63.3468 27.6777C64.5723 27.6777 65.5553 27.5628 66.2957 27.333C67.0616 27.0777 67.6233 26.733 67.9808 26.299C68.3382 25.865 68.5169 25.3671 68.5169 24.8054C68.5169 24.0905 68.2361 23.5288 67.6744 23.1203C67.1127 22.6863 66.3723 22.3416 65.4531 22.0863C64.534 21.8055 63.5128 21.5501 62.3894 21.3204C61.2915 21.065 60.1809 20.7587 59.0575 20.4012C57.9596 20.0438 56.9512 19.5842 56.032 19.0225C55.1129 18.4608 54.3597 17.7204 53.7725 16.8013C53.2108 15.8821 52.9299 14.7077 52.9299 13.2779C52.9299 11.746 53.3384 10.3546 54.1555 9.10353C54.998 7.82695 56.249 6.81846 57.9086 6.07805C59.5937 5.3121 61.7 4.92913 64.2276 4.92913C65.9127 4.92913 67.5723 5.13338 69.2063 5.54189C70.8403 5.92486 72.2828 6.51208 73.5339 7.30356L71.619 12.0141C70.368 11.2992 69.1169 10.7758 67.8659 10.4439C66.6148 10.0865 65.3893 9.90777 64.1893 9.90777C62.9894 9.90777 62.0064 10.0482 61.2404 10.329C60.4745 10.6099 59.9256 10.9801 59.5937 11.4397C59.2618 11.8737 59.0958 12.3843 59.0958 12.9716C59.0958 13.6609 59.3766 14.2226 59.9383 14.6566C60.5 15.0651 61.2404 15.397 62.1596 15.6524C63.0787 15.9077 64.0872 16.163 65.1851 16.4183C66.3085 16.6736 67.4191 16.9672 68.5169 17.2991C69.6403 17.6311 70.6616 18.0779 71.5807 18.6395C72.4998 19.2012 73.2403 19.9417 73.8019 20.8608C74.3892 21.7799 74.6828 22.9416 74.6828 24.3458C74.6828 25.8522 74.2615 27.2309 73.419 28.4819C72.5764 29.733 71.3126 30.7415 69.6275 31.5074C67.968 32.2734 65.8616 32.6563 63.3085 32.6563ZM78.9221 32.1968V5.3887H85.1263V27.1415H98.5686V32.1968H78.9221Z" fill="url(#paint0_linear_1_195)"/>
<defs>
<linearGradient id="paint0_linear_1_195" x1="10.9971" y1="10.2384" x2="113.261" y2="17.7996" gradientUnits="userSpaceOnUse">
<stop stop-color="#0DE0F3"/>
<stop offset="0.244792" stop-color="#109EF3"/>
<stop offset="0.473958" stop-color="#536AAF"/>
<stop offset="0.703125" stop-color="#536AAF"/>
<stop offset="0.703225" stop-color="#7766E2"/>
<stop offset="0.838542" stop-color="#8460E0"/>
<stop offset="0.93687" stop-color="#512555"/>
</linearGradient>
</defs>
</svg>
